<svg width="64" height="64" viewBox="0 0 64 64" fill="none" xmlns="http://www.w3.org/2000/svg">
<path d="M5.88491 40.6983C4.58752 39.2045 3.46248 37.6197 2.49542 35.9727C-4.2261 43.9446 3.48163 55.7277 15.4741 55.9527C15.8523 55.9575 16.2257 55.9527 16.5991 55.9527C14.4161 52.8405 12.683 49.4124 11.4575 45.7352C9.44674 44.3132 7.56529 42.6422 5.88012 40.6983H5.88491Z" fill="#272727"/>
<path d="M2.63895 26.3054C4.95606 23.2315 7.68967 20.5263 10.7488 18.2664C11.4813 15.9012 12.4914 13.5886 13.8223 11.3718C14.8421 9.67685 16.0006 8.12078 17.2693 6.68918C7.61307 2.75829 -1.21491 13.7322 2.2799 25.2089C2.3948 25.5824 2.51448 25.9415 2.63895 26.3054Z" fill="#272727"/>
<path d="M3.79318 29.2504C6.297 34.8332 9.86362 38.8119 12.4584 41.1963C9.69127 35.4269 8.70985 28.8818 9.74872 22.4899C7.513 24.4769 5.50708 26.7463 3.79318 29.2552V29.2504Z" fill="#272727"/>
<path d="M32.3405 9.41411C29.7553 7.90113 26.9786 6.69456 24.0631 5.83752C19.5246 9.94557 16.8437 14.5659 15.3787 17.7691C20.0129 13.3546 25.935 10.3956 32.3405 9.40932V9.41411Z" fill="#272727"/>
<path d="M44.1602 9.85906C46.0895 10.3043 47.9279 10.9268 49.6753 11.6928C50.4269 1.29344 37.2663 -3.70994 27.433 3.16075C27.1218 3.38099 26.8202 3.60602 26.5186 3.83105C30.2192 5.09507 33.6566 6.8666 36.7445 9.07383C39.1908 9.04511 41.6707 9.29408 44.1554 9.86863L44.1602 9.85906Z" fill="#272727"/>
<path d="M30.0663 13.843C29.7647 13.9148 29.4678 14.0057 29.1758 14.0967C20.6973 16.6295 15.6178 22.8347 15.6178 22.8347C15.6178 22.8347 15.1678 23.3374 14.5263 24.1801C14.1529 24.6733 13.7077 25.2909 13.2624 25.9947C13.2433 26.3107 13.2241 26.6267 13.2194 26.9427C13.0087 35.7765 17.3413 42.5323 17.3413 42.5323C17.3413 42.5323 17.6812 43.126 18.2892 43.9878C18.6483 44.5097 19.0935 45.1178 19.6153 45.7545C19.9074 45.8695 20.2042 45.9796 20.4962 46.0801C28.8407 49.0103 36.6011 46.9755 36.6011 46.9755C36.6011 46.9755 37.2617 46.8366 38.2767 46.5302C38.8703 46.3482 39.5836 46.1089 40.3544 45.812H40.3592C40.5603 45.5678 40.7613 45.3188 40.948 45.0699C46.3147 38.0412 46.7839 30.031 46.7839 30.031C46.7839 30.031 46.8509 29.3559 46.8701 28.2929C46.8844 27.6657 46.8749 26.9092 46.8318 26.0857C46.6594 25.8224 46.4919 25.5542 46.3099 25.2957C41.2832 18.0276 33.8052 15.1118 33.8052 15.1118C33.8052 15.1118 33.1829 14.8388 32.1775 14.4893C31.5887 14.2834 30.8658 14.0488 30.0567 13.843H30.0663ZM23.091 36.7149C21.2048 36.7149 19.5004 33.6459 18.2557 28.6712C21.1712 29.6288 24.2256 30.2847 27.3901 30.5768C26.2172 34.4167 24.7187 36.7149 23.091 36.7149ZM41.8337 29.399C40.6177 33.9379 38.9852 36.7149 37.1947 36.7149C35.5814 36.7149 34.1068 34.479 32.9339 30.7204C36.0026 30.6007 38.9804 30.1459 41.8337 29.3942V29.399Z" fill="#272727"/>
<rect x="16.5992" y="24.4867" width="26.1282" height="13.5134" fill="#272727"/>
<path d="M38.5543 13.3204C44.1843 16.3607 48.8233 21.0816 51.7436 26.8607C52.3852 23.9353 52.6724 20.9236 52.5862 17.8881C47.277 14.843 42.0587 13.7178 38.5591 13.3156L38.5543 13.3204Z" fill="#272727"/>
<path d="M15.1914 48.0047C16.393 50.7482 17.9298 53.3528 19.7825 55.7564C25.8673 55.1004 30.7505 52.9411 33.8192 51.2078C27.4759 52.0553 20.9507 50.9684 15.1914 48.0047Z" fill="#272727"/>
<path d="M56.1769 20.2681C55.8657 20.0334 55.5546 19.8132 55.2434 19.593C55.1763 23.4425 54.5492 27.2393 53.4098 30.8638C54.2093 33.2051 54.7503 35.6756 54.9753 38.2468C55.1476 40.2194 55.1237 42.1585 54.937 44.0593C65.0624 41.56 65.7517 27.4978 56.1769 20.2633V20.2681Z" fill="#272727"/>
<path d="M41.1487 50.7094C44.1265 50.4126 47.0756 49.7662 49.9336 48.7416C51.1879 42.7519 50.6422 37.4373 49.9432 33.9852C48.7895 40.2765 45.7399 46.1465 41.144 50.7094H41.1487Z" fill="#272727"/>
<path d="M31.3205 57.3071C29.5013 58.078 27.6438 58.6573 25.7815 59.069C31.287 67.9267 44.8737 64.2352 48.7946 52.8974C48.9238 52.5239 49.0387 52.1601 49.1488 51.7914C45.4912 52.9165 41.6805 53.515 37.8362 53.5581C35.8638 55.0328 33.6903 56.3064 31.3205 57.3119V57.3071Z" fill="#272727"/>
<path d="M18.2498 28.657C20.4218 29.3515 25.001 30.471 27.3936 30.5544C26.6664 33.8553 25.0388 36.373 23.3437 36.7011C21.6486 37.0292 19.7511 34.7167 18.2498 28.657Z" fill="white"/>
<path d="M42.0377 28.657C39.8657 29.3515 35.2865 30.471 32.8938 30.5544C33.6211 33.8553 35.2486 36.373 36.9438 36.7011C38.6389 37.0292 40.5364 34.7167 42.0377 28.657Z" fill="white"/>
</svg>
